# xmcd CD database file
#
# Track frame offsets:
#	150
#	13310
#	18020
#	29120
#	41322
#	53732
#	63925
#	75765
#	87837
#	96905
#	108140
#	116385
#	128907
#	136302
#	147845
#	155637
#	165300
#	176242
#	188672
#	200207
#	209635
#	221620
#	231590
#	243947
#	255945
#	268375
#	279315
#	292285
#	304647
#	315507
#	322387
#
# Disc length: 4468 seconds
#
# Revision: 0
# Processed by: cddbd v1.5.1PL0 Copyright (c) Steve Scherf et al.
# Submitted via: CDex 1.51
#
DISCID=c511721f
DTITLE=Sonoton Authentic Series - SAS 057 - Authentic Switzerland
DYEAR=1995
DGENRE=Contentum
TTITLE0=Swiss alphorn trio
TTITLE1=Swiss alphorn solo
TTITLE2=Yodel of joy
TTITLE3=Champion marksman
TTITLE4=Lake alpsee
TTITLE5=Mountain spirits
TTITLE6=Weggis yodel polka
TTITLE7=Mountain hut landler
TTITLE8=Rigi song
TTITLE9=Harvest polka
TTITLE10=Salute to the brass
TTITLE11=Fribourg journey
TTITLE12=Alpine yodel polka
TTITLE13=The sun of Ticino
TTITLE14=Grandpa's Dulcimer
TTITLE15=Kurzeberg waltz
TTITLE16=Zurich
TTITLE17=Arnigrat yodel
TTITLE18=At Daniel's
TTITLE19=Appenzell waltz
TTITLE20=Salute to Ruperswil
TTITLE21=Full of beans
TTITLE22=Lago maggiore
TTITLE23=At the water-wheel
TTITLE24=Chamois region
TTITLE25=The scissors grinder
TTITLE26=On the bench
TTITLE27=Polka drops
TTITLE28=On the drops
TTITLE29=Swiss alphorn moods
TTITLE30=Crossing the Gotthard
EXTD=YEAR: 1995
EXTT0=
EXTT1=
EXTT2=
EXTT3=
EXTT4=
EXTT5=
EXTT6=
EXTT7=
EXTT8=
EXTT9=
EXTT10=
EXTT11=
EXTT12=
EXTT13=
EXTT14=
EXTT15=
EXTT16=
EXTT17=
EXTT18=
EXTT19=
EXTT20=
EXTT21=
EXTT22=
EXTT23=
EXTT24=
EXTT25=
EXTT26=
EXTT27=
EXTT28=
EXTT29=
EXTT30=
PLAYORDER=
